<mxfile host="app.diagrams.net" agent="Mozilla/5.0 (Windows NT 10.0; Win64; x64) AppleWebKit/537.36 (KHTML, like Gecko) Chrome/132.0.0.0 YaBrowser/25.2.0.0 Safari/537.36" version="26.0.16">
  <diagram name="Страница — 1" id="8B8gG1uBMsVlmT51NZ5m">
    <mxGraphModel dx="1050" dy="663" grid="0" gridSize="10" guides="1" tooltips="1" connect="1" arrows="1" fold="1" page="1" pageScale="1" pageWidth="1169" pageHeight="1654" math="0" shadow="0">
      <root>
        <mxCell id="0" />
        <mxCell id="1" parent="0" />
        <mxCell id="dlGFLDc5pn9WShTYnlXR-2" value="Обслуживание заказа" style="swimlane;html=1;childLayout=stackLayout;resizeParent=1;resizeParentMax=0;horizontal=0;startSize=20;horizontalStack=0;whiteSpace=wrap;" vertex="1" parent="1">
          <mxGeometry x="40" y="40" width="990" height="280" as="geometry" />
        </mxCell>
        <mxCell id="dlGFLDc5pn9WShTYnlXR-3" value="Консультант" style="swimlane;html=1;startSize=20;horizontal=0;" vertex="1" parent="dlGFLDc5pn9WShTYnlXR-2">
          <mxGeometry x="20" width="970" height="140" as="geometry" />
        </mxCell>
        <mxCell id="dlGFLDc5pn9WShTYnlXR-38" value="" style="points=[[0.145,0.145,0],[0.5,0,0],[0.855,0.145,0],[1,0.5,0],[0.855,0.855,0],[0.5,1,0],[0.145,0.855,0],[0,0.5,0]];shape=mxgraph.bpmn.event;html=1;verticalLabelPosition=bottom;labelBackgroundColor=#ffffff;verticalAlign=top;align=center;perimeter=ellipsePerimeter;outlineConnect=0;aspect=fixed;outline=catching;symbol=message;" vertex="1" parent="dlGFLDc5pn9WShTYnlXR-3">
          <mxGeometry x="620" y="45" width="50" height="50" as="geometry" />
        </mxCell>
        <mxCell id="dlGFLDc5pn9WShTYnlXR-40" value="&lt;font style=&quot;font-size: 11px;&quot;&gt;Обслуживание заказа&lt;/font&gt;" style="points=[[0.25,0,0],[0.5,0,0],[0.75,0,0],[1,0.25,0],[1,0.5,0],[1,0.75,0],[0.75,1,0],[0.5,1,0],[0.25,1,0],[0,0.75,0],[0,0.5,0],[0,0.25,0]];shape=mxgraph.bpmn.task2;whiteSpace=wrap;rectStyle=rounded;size=10;html=1;container=1;expand=0;collapsible=0;taskMarker=manual;" vertex="1" parent="dlGFLDc5pn9WShTYnlXR-3">
          <mxGeometry x="690" y="30" width="80" height="80" as="geometry" />
        </mxCell>
        <mxCell id="dlGFLDc5pn9WShTYnlXR-41" style="edgeStyle=orthogonalEdgeStyle;rounded=0;orthogonalLoop=1;jettySize=auto;html=1;exitX=1;exitY=0.5;exitDx=0;exitDy=0;exitPerimeter=0;entryX=0;entryY=0.5;entryDx=0;entryDy=0;entryPerimeter=0;" edge="1" parent="dlGFLDc5pn9WShTYnlXR-3" source="dlGFLDc5pn9WShTYnlXR-38" target="dlGFLDc5pn9WShTYnlXR-40">
          <mxGeometry relative="1" as="geometry" />
        </mxCell>
        <mxCell id="dlGFLDc5pn9WShTYnlXR-42" value="" style="points=[[0.145,0.145,0],[0.5,0,0],[0.855,0.145,0],[1,0.5,0],[0.855,0.855,0],[0.5,1,0],[0.145,0.855,0],[0,0.5,0]];shape=mxgraph.bpmn.event;html=1;verticalLabelPosition=bottom;labelBackgroundColor=#ffffff;verticalAlign=top;align=center;perimeter=ellipsePerimeter;outlineConnect=0;aspect=fixed;outline=standard;symbol=message;" vertex="1" parent="dlGFLDc5pn9WShTYnlXR-3">
          <mxGeometry x="790" y="45" width="50" height="50" as="geometry" />
        </mxCell>
        <mxCell id="dlGFLDc5pn9WShTYnlXR-43" style="edgeStyle=orthogonalEdgeStyle;rounded=0;orthogonalLoop=1;jettySize=auto;html=1;exitX=1;exitY=0.5;exitDx=0;exitDy=0;exitPerimeter=0;entryX=0;entryY=0.5;entryDx=0;entryDy=0;entryPerimeter=0;" edge="1" parent="dlGFLDc5pn9WShTYnlXR-3" source="dlGFLDc5pn9WShTYnlXR-40" target="dlGFLDc5pn9WShTYnlXR-42">
          <mxGeometry relative="1" as="geometry" />
        </mxCell>
        <mxCell id="dlGFLDc5pn9WShTYnlXR-4" value="Клиент" style="swimlane;html=1;startSize=20;horizontal=0;" vertex="1" parent="dlGFLDc5pn9WShTYnlXR-2">
          <mxGeometry x="20" y="140" width="970" height="140" as="geometry" />
        </mxCell>
        <mxCell id="dlGFLDc5pn9WShTYnlXR-6" value="" style="points=[[0.145,0.145,0],[0.5,0,0],[0.855,0.145,0],[1,0.5,0],[0.855,0.855,0],[0.5,1,0],[0.145,0.855,0],[0,0.5,0]];shape=mxgraph.bpmn.event;html=1;verticalLabelPosition=bottom;labelBackgroundColor=#ffffff;verticalAlign=top;align=center;perimeter=ellipsePerimeter;outlineConnect=0;aspect=fixed;outline=standard;symbol=general;" vertex="1" parent="dlGFLDc5pn9WShTYnlXR-4">
          <mxGeometry x="40" y="52.5" width="35" height="35" as="geometry" />
        </mxCell>
        <mxCell id="dlGFLDc5pn9WShTYnlXR-10" value="Выбирает услуги" style="points=[[0.25,0,0],[0.5,0,0],[0.75,0,0],[1,0.25,0],[1,0.5,0],[1,0.75,0],[0.75,1,0],[0.5,1,0],[0.25,1,0],[0,0.75,0],[0,0.5,0],[0,0.25,0]];shape=mxgraph.bpmn.task2;whiteSpace=wrap;rectStyle=rounded;size=10;html=1;container=1;expand=0;collapsible=0;taskMarker=user;" vertex="1" parent="dlGFLDc5pn9WShTYnlXR-4">
          <mxGeometry x="100" y="30" width="80" height="80" as="geometry" />
        </mxCell>
        <mxCell id="dlGFLDc5pn9WShTYnlXR-18" style="edgeStyle=orthogonalEdgeStyle;rounded=0;orthogonalLoop=1;jettySize=auto;html=1;exitX=1;exitY=0.5;exitDx=0;exitDy=0;exitPerimeter=0;" edge="1" parent="dlGFLDc5pn9WShTYnlXR-4" source="dlGFLDc5pn9WShTYnlXR-11" target="dlGFLDc5pn9WShTYnlXR-17">
          <mxGeometry relative="1" as="geometry" />
        </mxCell>
        <mxCell id="dlGFLDc5pn9WShTYnlXR-11" value="Оформление заказа" style="points=[[0.25,0,0],[0.5,0,0],[0.75,0,0],[1,0.25,0],[1,0.5,0],[1,0.75,0],[0.75,1,0],[0.5,1,0],[0.25,1,0],[0,0.75,0],[0,0.5,0],[0,0.25,0]];shape=mxgraph.bpmn.task2;whiteSpace=wrap;rectStyle=rounded;size=10;html=1;container=1;expand=0;collapsible=0;taskMarker=user;" vertex="1" parent="dlGFLDc5pn9WShTYnlXR-4">
          <mxGeometry x="200" y="30" width="80" height="80" as="geometry" />
        </mxCell>
        <mxCell id="dlGFLDc5pn9WShTYnlXR-12" style="edgeStyle=orthogonalEdgeStyle;rounded=0;orthogonalLoop=1;jettySize=auto;html=1;exitX=1;exitY=0.5;exitDx=0;exitDy=0;exitPerimeter=0;entryX=0;entryY=0.5;entryDx=0;entryDy=0;entryPerimeter=0;" edge="1" parent="dlGFLDc5pn9WShTYnlXR-4" source="dlGFLDc5pn9WShTYnlXR-10" target="dlGFLDc5pn9WShTYnlXR-11">
          <mxGeometry relative="1" as="geometry" />
        </mxCell>
        <mxCell id="dlGFLDc5pn9WShTYnlXR-13" style="edgeStyle=orthogonalEdgeStyle;rounded=0;orthogonalLoop=1;jettySize=auto;html=1;exitX=1;exitY=0.5;exitDx=0;exitDy=0;exitPerimeter=0;entryX=0;entryY=0.5;entryDx=0;entryDy=0;entryPerimeter=0;" edge="1" parent="dlGFLDc5pn9WShTYnlXR-4" source="dlGFLDc5pn9WShTYnlXR-6" target="dlGFLDc5pn9WShTYnlXR-10">
          <mxGeometry relative="1" as="geometry" />
        </mxCell>
        <mxCell id="dlGFLDc5pn9WShTYnlXR-17" value="заказ не оплачен" style="points=[[0.145,0.145,0],[0.5,0,0],[0.855,0.145,0],[1,0.5,0],[0.855,0.855,0],[0.5,1,0],[0.145,0.855,0],[0,0.5,0]];shape=mxgraph.bpmn.event;html=1;verticalLabelPosition=bottom;labelBackgroundColor=#ffffff;verticalAlign=top;align=center;perimeter=ellipsePerimeter;outlineConnect=0;aspect=fixed;outline=throwing;symbol=general;" vertex="1" parent="dlGFLDc5pn9WShTYnlXR-4">
          <mxGeometry x="300" y="45" width="50" height="50" as="geometry" />
        </mxCell>
        <mxCell id="dlGFLDc5pn9WShTYnlXR-30" value="заказ оплачен" style="points=[[0.145,0.145,0],[0.5,0,0],[0.855,0.145,0],[1,0.5,0],[0.855,0.855,0],[0.5,1,0],[0.145,0.855,0],[0,0.5,0]];shape=mxgraph.bpmn.event;html=1;verticalLabelPosition=bottom;labelBackgroundColor=#ffffff;verticalAlign=top;align=center;perimeter=ellipsePerimeter;outlineConnect=0;aspect=fixed;outline=throwing;symbol=general;" vertex="1" parent="dlGFLDc5pn9WShTYnlXR-4">
          <mxGeometry x="550" y="45" width="50" height="50" as="geometry" />
        </mxCell>
        <mxCell id="dlGFLDc5pn9WShTYnlXR-33" style="edgeStyle=orthogonalEdgeStyle;rounded=0;orthogonalLoop=1;jettySize=auto;html=1;exitX=0.5;exitY=0;exitDx=0;exitDy=0;exitPerimeter=0;entryX=0.5;entryY=0;entryDx=0;entryDy=0;entryPerimeter=0;" edge="1" parent="dlGFLDc5pn9WShTYnlXR-4" source="dlGFLDc5pn9WShTYnlXR-30" target="dlGFLDc5pn9WShTYnlXR-10">
          <mxGeometry relative="1" as="geometry">
            <Array as="points">
              <mxPoint x="575" y="10" />
              <mxPoint x="140" y="10" />
            </Array>
          </mxGeometry>
        </mxCell>
        <mxCell id="dlGFLDc5pn9WShTYnlXR-36" value="" style="points=[[0.145,0.145,0],[0.5,0,0],[0.855,0.145,0],[1,0.5,0],[0.855,0.855,0],[0.5,1,0],[0.145,0.855,0],[0,0.5,0]];shape=mxgraph.bpmn.event;html=1;verticalLabelPosition=bottom;labelBackgroundColor=#ffffff;verticalAlign=top;align=center;perimeter=ellipsePerimeter;outlineConnect=0;aspect=fixed;outline=standard;symbol=message;" vertex="1" parent="dlGFLDc5pn9WShTYnlXR-4">
          <mxGeometry x="620" y="45" width="50" height="50" as="geometry" />
        </mxCell>
        <mxCell id="dlGFLDc5pn9WShTYnlXR-37" style="edgeStyle=orthogonalEdgeStyle;rounded=0;orthogonalLoop=1;jettySize=auto;html=1;exitX=1;exitY=0.5;exitDx=0;exitDy=0;exitPerimeter=0;entryX=0;entryY=0.5;entryDx=0;entryDy=0;entryPerimeter=0;" edge="1" parent="dlGFLDc5pn9WShTYnlXR-4" source="dlGFLDc5pn9WShTYnlXR-30" target="dlGFLDc5pn9WShTYnlXR-36">
          <mxGeometry relative="1" as="geometry" />
        </mxCell>
        <mxCell id="dlGFLDc5pn9WShTYnlXR-44" value="" style="points=[[0.145,0.145,0],[0.5,0,0],[0.855,0.145,0],[1,0.5,0],[0.855,0.855,0],[0.5,1,0],[0.145,0.855,0],[0,0.5,0]];shape=mxgraph.bpmn.event;html=1;verticalLabelPosition=bottom;labelBackgroundColor=#ffffff;verticalAlign=top;align=center;perimeter=ellipsePerimeter;outlineConnect=0;aspect=fixed;outline=catching;symbol=message;" vertex="1" parent="dlGFLDc5pn9WShTYnlXR-4">
          <mxGeometry x="790" y="45" width="50" height="50" as="geometry" />
        </mxCell>
        <mxCell id="dlGFLDc5pn9WShTYnlXR-46" value="" style="points=[[0.145,0.145,0],[0.5,0,0],[0.855,0.145,0],[1,0.5,0],[0.855,0.855,0],[0.5,1,0],[0.145,0.855,0],[0,0.5,0]];shape=mxgraph.bpmn.event;html=1;verticalLabelPosition=bottom;labelBackgroundColor=#ffffff;verticalAlign=top;align=center;perimeter=ellipsePerimeter;outlineConnect=0;aspect=fixed;outline=end;symbol=terminate2;" vertex="1" parent="dlGFLDc5pn9WShTYnlXR-4">
          <mxGeometry x="860" y="45" width="50" height="50" as="geometry" />
        </mxCell>
        <mxCell id="dlGFLDc5pn9WShTYnlXR-47" style="edgeStyle=orthogonalEdgeStyle;rounded=0;orthogonalLoop=1;jettySize=auto;html=1;exitX=1;exitY=0.5;exitDx=0;exitDy=0;exitPerimeter=0;entryX=0;entryY=0.5;entryDx=0;entryDy=0;entryPerimeter=0;" edge="1" parent="dlGFLDc5pn9WShTYnlXR-4" source="dlGFLDc5pn9WShTYnlXR-44" target="dlGFLDc5pn9WShTYnlXR-46">
          <mxGeometry relative="1" as="geometry" />
        </mxCell>
        <mxCell id="dlGFLDc5pn9WShTYnlXR-39" style="edgeStyle=orthogonalEdgeStyle;rounded=0;orthogonalLoop=1;jettySize=auto;html=1;exitX=0.5;exitY=0;exitDx=0;exitDy=0;exitPerimeter=0;entryX=0.5;entryY=1;entryDx=0;entryDy=0;entryPerimeter=0;" edge="1" parent="dlGFLDc5pn9WShTYnlXR-2" source="dlGFLDc5pn9WShTYnlXR-36" target="dlGFLDc5pn9WShTYnlXR-38">
          <mxGeometry relative="1" as="geometry" />
        </mxCell>
        <mxCell id="dlGFLDc5pn9WShTYnlXR-45" style="edgeStyle=orthogonalEdgeStyle;rounded=0;orthogonalLoop=1;jettySize=auto;html=1;exitX=0.5;exitY=1;exitDx=0;exitDy=0;exitPerimeter=0;" edge="1" parent="dlGFLDc5pn9WShTYnlXR-2" source="dlGFLDc5pn9WShTYnlXR-42" target="dlGFLDc5pn9WShTYnlXR-44">
          <mxGeometry relative="1" as="geometry" />
        </mxCell>
        <mxCell id="dlGFLDc5pn9WShTYnlXR-15" value="Сервис оплаты" style="swimlane;html=1;startSize=20;fontStyle=0;collapsible=0;horizontal=0;swimlaneLine=1;swimlaneFillColor=#ffffff;strokeWidth=2;whiteSpace=wrap;" vertex="1" parent="1">
          <mxGeometry x="40" y="340" width="990" height="120" as="geometry" />
        </mxCell>
        <mxCell id="dlGFLDc5pn9WShTYnlXR-21" value="" style="points=[[0.25,0.25,0],[0.5,0,0],[0.75,0.25,0],[1,0.5,0],[0.75,0.75,0],[0.5,1,0],[0.25,0.75,0],[0,0.5,0]];shape=mxgraph.bpmn.gateway2;html=1;verticalLabelPosition=bottom;labelBackgroundColor=#ffffff;verticalAlign=top;align=center;perimeter=rhombusPerimeter;outlineConnect=0;outline=none;symbol=none;gwType=exclusive;" vertex="1" parent="dlGFLDc5pn9WShTYnlXR-15">
          <mxGeometry x="520" y="35" width="50" height="50" as="geometry" />
        </mxCell>
        <mxCell id="dlGFLDc5pn9WShTYnlXR-22" value="&#xa;&lt;span style=&quot;color: rgb(0, 0, 0); font-family: Helvetica; font-size: 12px; font-style: normal; font-variant-ligatures: normal; font-variant-caps: normal; font-weight: 400; letter-spacing: normal; orphans: 2; text-align: center; text-indent: 0px; text-transform: none; widows: 2; word-spacing: 0px; -webkit-text-stroke-width: 0px; white-space: normal; background-color: rgb(251, 251, 251); text-decoration-thickness: initial; text-decoration-style: initial; text-decoration-color: initial; display: inline !important; float: none;&quot;&gt;Оплата заказа&lt;/span&gt;&#xa;&#xa;" style="points=[[0.25,0,0],[0.5,0,0],[0.75,0,0],[1,0.25,0],[1,0.5,0],[1,0.75,0],[0.75,1,0],[0.5,1,0],[0.25,1,0],[0,0.75,0],[0,0.5,0],[0,0.25,0]];shape=mxgraph.bpmn.task2;whiteSpace=wrap;rectStyle=rounded;size=10;html=1;container=1;expand=0;collapsible=0;taskMarker=service;" vertex="1" parent="dlGFLDc5pn9WShTYnlXR-15">
          <mxGeometry x="302.5" y="20" width="85" height="80" as="geometry" />
        </mxCell>
        <mxCell id="dlGFLDc5pn9WShTYnlXR-26" style="edgeStyle=orthogonalEdgeStyle;rounded=0;orthogonalLoop=1;jettySize=auto;html=1;exitX=1;exitY=0.5;exitDx=0;exitDy=0;exitPerimeter=0;" edge="1" parent="dlGFLDc5pn9WShTYnlXR-15" source="dlGFLDc5pn9WShTYnlXR-24" target="dlGFLDc5pn9WShTYnlXR-21">
          <mxGeometry relative="1" as="geometry" />
        </mxCell>
        <mxCell id="dlGFLDc5pn9WShTYnlXR-24" value="Оплата прошла успешно" style="points=[[0.25,0,0],[0.5,0,0],[0.75,0,0],[1,0.25,0],[1,0.5,0],[1,0.75,0],[0.75,1,0],[0.5,1,0],[0.25,1,0],[0,0.75,0],[0,0.5,0],[0,0.25,0]];shape=mxgraph.bpmn.task2;whiteSpace=wrap;rectStyle=rounded;size=10;html=1;container=1;expand=0;collapsible=0;taskMarker=service;" vertex="1" parent="dlGFLDc5pn9WShTYnlXR-15">
          <mxGeometry x="410" y="20" width="85" height="80" as="geometry" />
        </mxCell>
        <mxCell id="dlGFLDc5pn9WShTYnlXR-25" style="edgeStyle=orthogonalEdgeStyle;rounded=0;orthogonalLoop=1;jettySize=auto;html=1;exitX=1;exitY=0.5;exitDx=0;exitDy=0;exitPerimeter=0;entryX=0;entryY=0.5;entryDx=0;entryDy=0;entryPerimeter=0;" edge="1" parent="dlGFLDc5pn9WShTYnlXR-15" source="dlGFLDc5pn9WShTYnlXR-22" target="dlGFLDc5pn9WShTYnlXR-24">
          <mxGeometry relative="1" as="geometry" />
        </mxCell>
        <mxCell id="dlGFLDc5pn9WShTYnlXR-23" style="edgeStyle=orthogonalEdgeStyle;rounded=0;orthogonalLoop=1;jettySize=auto;html=1;exitX=0.5;exitY=1;exitDx=0;exitDy=0;exitPerimeter=0;entryX=0.5;entryY=0;entryDx=0;entryDy=0;entryPerimeter=0;dashed=1;" edge="1" parent="1" source="dlGFLDc5pn9WShTYnlXR-17" target="dlGFLDc5pn9WShTYnlXR-22">
          <mxGeometry relative="1" as="geometry" />
        </mxCell>
        <mxCell id="dlGFLDc5pn9WShTYnlXR-28" style="edgeStyle=orthogonalEdgeStyle;rounded=0;orthogonalLoop=1;jettySize=auto;html=1;exitX=0.5;exitY=0;exitDx=0;exitDy=0;exitPerimeter=0;entryX=1;entryY=0.5;entryDx=0;entryDy=0;entryPerimeter=0;dashed=1;" edge="1" parent="1" source="dlGFLDc5pn9WShTYnlXR-21" target="dlGFLDc5pn9WShTYnlXR-17">
          <mxGeometry relative="1" as="geometry" />
        </mxCell>
        <mxCell id="dlGFLDc5pn9WShTYnlXR-29" value="нет" style="edgeLabel;html=1;align=center;verticalAlign=middle;resizable=0;points=[];" vertex="1" connectable="0" parent="dlGFLDc5pn9WShTYnlXR-28">
          <mxGeometry x="-0.8622" y="2" relative="1" as="geometry">
            <mxPoint as="offset" />
          </mxGeometry>
        </mxCell>
        <mxCell id="dlGFLDc5pn9WShTYnlXR-31" style="edgeStyle=orthogonalEdgeStyle;rounded=0;orthogonalLoop=1;jettySize=auto;html=1;exitX=1;exitY=0.5;exitDx=0;exitDy=0;exitPerimeter=0;dashed=1;" edge="1" parent="1" source="dlGFLDc5pn9WShTYnlXR-21" target="dlGFLDc5pn9WShTYnlXR-30">
          <mxGeometry relative="1" as="geometry" />
        </mxCell>
        <mxCell id="dlGFLDc5pn9WShTYnlXR-32" value="да" style="edgeLabel;html=1;align=center;verticalAlign=middle;resizable=0;points=[];" vertex="1" connectable="0" parent="dlGFLDc5pn9WShTYnlXR-31">
          <mxGeometry x="-0.7396" y="-2" relative="1" as="geometry">
            <mxPoint x="-11" y="-2" as="offset" />
          </mxGeometry>
        </mxCell>
        <mxCell id="dlGFLDc5pn9WShTYnlXR-48" value="Регистрация пользователя" style="swimlane;html=1;childLayout=stackLayout;resizeParent=1;resizeParentMax=0;horizontal=0;startSize=20;horizontalStack=0;whiteSpace=wrap;" vertex="1" parent="1">
          <mxGeometry x="40" y="520" width="990" height="240" as="geometry" />
        </mxCell>
        <mxCell id="dlGFLDc5pn9WShTYnlXR-49" value="Клиент" style="swimlane;html=1;startSize=20;horizontal=0;" vertex="1" parent="dlGFLDc5pn9WShTYnlXR-48">
          <mxGeometry x="20" width="970" height="120" as="geometry" />
        </mxCell>
        <mxCell id="dlGFLDc5pn9WShTYnlXR-81" value="Авторизация" style="points=[[0.25,0,0],[0.5,0,0],[0.75,0,0],[1,0.25,0],[1,0.5,0],[1,0.75,0],[0.75,1,0],[0.5,1,0],[0.25,1,0],[0,0.75,0],[0,0.5,0],[0,0.25,0]];shape=mxgraph.bpmn.task2;whiteSpace=wrap;rectStyle=rounded;size=10;html=1;container=1;expand=0;collapsible=0;taskMarker=user;" vertex="1" parent="dlGFLDc5pn9WShTYnlXR-49">
          <mxGeometry x="685" y="20" width="80" height="80" as="geometry" />
        </mxCell>
        <mxCell id="dlGFLDc5pn9WShTYnlXR-84" value="" style="points=[[0.145,0.145,0],[0.5,0,0],[0.855,0.145,0],[1,0.5,0],[0.855,0.855,0],[0.5,1,0],[0.145,0.855,0],[0,0.5,0]];shape=mxgraph.bpmn.event;html=1;verticalLabelPosition=bottom;labelBackgroundColor=#ffffff;verticalAlign=top;align=center;perimeter=ellipsePerimeter;outlineConnect=0;aspect=fixed;outline=end;symbol=terminate2;" vertex="1" parent="dlGFLDc5pn9WShTYnlXR-49">
          <mxGeometry x="900" y="35" width="50" height="50" as="geometry" />
        </mxCell>
        <mxCell id="dlGFLDc5pn9WShTYnlXR-90" value="" style="edgeStyle=orthogonalEdgeStyle;rounded=0;orthogonalLoop=1;jettySize=auto;html=1;" edge="1" parent="dlGFLDc5pn9WShTYnlXR-49" source="dlGFLDc5pn9WShTYnlXR-89" target="dlGFLDc5pn9WShTYnlXR-84">
          <mxGeometry relative="1" as="geometry" />
        </mxCell>
        <mxCell id="dlGFLDc5pn9WShTYnlXR-89" value="Переход в личный кабинет" style="points=[[0.25,0,0],[0.5,0,0],[0.75,0,0],[1,0.25,0],[1,0.5,0],[1,0.75,0],[0.75,1,0],[0.5,1,0],[0.25,1,0],[0,0.75,0],[0,0.5,0],[0,0.25,0]];shape=mxgraph.bpmn.task2;whiteSpace=wrap;rectStyle=rounded;size=10;html=1;container=1;expand=0;collapsible=0;taskMarker=user;" vertex="1" parent="dlGFLDc5pn9WShTYnlXR-49">
          <mxGeometry x="790" y="20" width="80" height="80" as="geometry" />
        </mxCell>
        <mxCell id="dlGFLDc5pn9WShTYnlXR-91" style="edgeStyle=orthogonalEdgeStyle;rounded=0;orthogonalLoop=1;jettySize=auto;html=1;exitX=1;exitY=0.5;exitDx=0;exitDy=0;exitPerimeter=0;entryX=0;entryY=0.5;entryDx=0;entryDy=0;entryPerimeter=0;" edge="1" parent="dlGFLDc5pn9WShTYnlXR-49" source="dlGFLDc5pn9WShTYnlXR-81" target="dlGFLDc5pn9WShTYnlXR-89">
          <mxGeometry relative="1" as="geometry" />
        </mxCell>
        <mxCell id="dlGFLDc5pn9WShTYnlXR-50" value="Гость" style="swimlane;html=1;startSize=20;horizontal=0;" vertex="1" parent="dlGFLDc5pn9WShTYnlXR-48">
          <mxGeometry x="20" y="120" width="970" height="120" as="geometry" />
        </mxCell>
        <mxCell id="dlGFLDc5pn9WShTYnlXR-53" value="" style="points=[[0.145,0.145,0],[0.5,0,0],[0.855,0.145,0],[1,0.5,0],[0.855,0.855,0],[0.5,1,0],[0.145,0.855,0],[0,0.5,0]];shape=mxgraph.bpmn.event;html=1;verticalLabelPosition=bottom;labelBackgroundColor=#ffffff;verticalAlign=top;align=center;perimeter=ellipsePerimeter;outlineConnect=0;aspect=fixed;outline=standard;symbol=general;" vertex="1" parent="dlGFLDc5pn9WShTYnlXR-50">
          <mxGeometry x="40" y="35" width="50" height="50" as="geometry" />
        </mxCell>
        <mxCell id="dlGFLDc5pn9WShTYnlXR-54" value="Зашел на сайт" style="points=[[0.25,0,0],[0.5,0,0],[0.75,0,0],[1,0.25,0],[1,0.5,0],[1,0.75,0],[0.75,1,0],[0.5,1,0],[0.25,1,0],[0,0.75,0],[0,0.5,0],[0,0.25,0]];shape=mxgraph.bpmn.task2;whiteSpace=wrap;rectStyle=rounded;size=10;html=1;container=1;expand=0;collapsible=0;taskMarker=user;" vertex="1" parent="dlGFLDc5pn9WShTYnlXR-50">
          <mxGeometry x="110" y="20" width="80" height="80" as="geometry" />
        </mxCell>
        <mxCell id="dlGFLDc5pn9WShTYnlXR-55" style="edgeStyle=orthogonalEdgeStyle;rounded=0;orthogonalLoop=1;jettySize=auto;html=1;exitX=1;exitY=0.5;exitDx=0;exitDy=0;exitPerimeter=0;entryX=0;entryY=0.5;entryDx=0;entryDy=0;entryPerimeter=0;" edge="1" parent="dlGFLDc5pn9WShTYnlXR-50" source="dlGFLDc5pn9WShTYnlXR-53" target="dlGFLDc5pn9WShTYnlXR-54">
          <mxGeometry relative="1" as="geometry" />
        </mxCell>
        <mxCell id="dlGFLDc5pn9WShTYnlXR-59" style="edgeStyle=orthogonalEdgeStyle;rounded=0;orthogonalLoop=1;jettySize=auto;html=1;exitX=1;exitY=0.5;exitDx=0;exitDy=0;exitPerimeter=0;" edge="1" parent="dlGFLDc5pn9WShTYnlXR-50" source="dlGFLDc5pn9WShTYnlXR-56" target="dlGFLDc5pn9WShTYnlXR-58">
          <mxGeometry relative="1" as="geometry" />
        </mxCell>
        <mxCell id="dlGFLDc5pn9WShTYnlXR-56" value="Нажал кнопку регистрации" style="points=[[0.25,0,0],[0.5,0,0],[0.75,0,0],[1,0.25,0],[1,0.5,0],[1,0.75,0],[0.75,1,0],[0.5,1,0],[0.25,1,0],[0,0.75,0],[0,0.5,0],[0,0.25,0]];shape=mxgraph.bpmn.task2;whiteSpace=wrap;rectStyle=rounded;size=10;html=1;container=1;expand=0;collapsible=0;taskMarker=user;" vertex="1" parent="dlGFLDc5pn9WShTYnlXR-50">
          <mxGeometry x="210" y="20" width="80" height="80" as="geometry" />
        </mxCell>
        <mxCell id="dlGFLDc5pn9WShTYnlXR-57" style="edgeStyle=orthogonalEdgeStyle;rounded=0;orthogonalLoop=1;jettySize=auto;html=1;exitX=1;exitY=0.5;exitDx=0;exitDy=0;exitPerimeter=0;entryX=0;entryY=0.5;entryDx=0;entryDy=0;entryPerimeter=0;" edge="1" parent="dlGFLDc5pn9WShTYnlXR-50" source="dlGFLDc5pn9WShTYnlXR-54" target="dlGFLDc5pn9WShTYnlXR-56">
          <mxGeometry relative="1" as="geometry" />
        </mxCell>
        <mxCell id="dlGFLDc5pn9WShTYnlXR-58" value="Ввод логина и пароля" style="points=[[0.25,0,0],[0.5,0,0],[0.75,0,0],[1,0.25,0],[1,0.5,0],[1,0.75,0],[0.75,1,0],[0.5,1,0],[0.25,1,0],[0,0.75,0],[0,0.5,0],[0,0.25,0]];shape=mxgraph.bpmn.task2;whiteSpace=wrap;rectStyle=rounded;size=10;html=1;container=1;expand=0;collapsible=0;taskMarker=user;" vertex="1" parent="dlGFLDc5pn9WShTYnlXR-50">
          <mxGeometry x="310" y="20" width="80" height="80" as="geometry" />
        </mxCell>
        <mxCell id="dlGFLDc5pn9WShTYnlXR-66" style="edgeStyle=orthogonalEdgeStyle;rounded=0;orthogonalLoop=1;jettySize=auto;html=1;exitX=1;exitY=0.5;exitDx=0;exitDy=0;exitPerimeter=0;entryX=0;entryY=0.5;entryDx=0;entryDy=0;entryPerimeter=0;" edge="1" parent="dlGFLDc5pn9WShTYnlXR-50" source="dlGFLDc5pn9WShTYnlXR-58">
          <mxGeometry relative="1" as="geometry">
            <mxPoint x="410" y="60" as="targetPoint" />
          </mxGeometry>
        </mxCell>
        <mxCell id="dlGFLDc5pn9WShTYnlXR-70" value="" style="points=[[0.145,0.145,0],[0.5,0,0],[0.855,0.145,0],[1,0.5,0],[0.855,0.855,0],[0.5,1,0],[0.145,0.855,0],[0,0.5,0]];shape=mxgraph.bpmn.event;html=1;verticalLabelPosition=bottom;labelBackgroundColor=#ffffff;verticalAlign=top;align=center;perimeter=ellipsePerimeter;outlineConnect=0;aspect=fixed;outline=standard;symbol=message;" vertex="1" parent="dlGFLDc5pn9WShTYnlXR-50">
          <mxGeometry x="410" y="35" width="50" height="50" as="geometry" />
        </mxCell>
        <mxCell id="dlGFLDc5pn9WShTYnlXR-80" style="edgeStyle=orthogonalEdgeStyle;rounded=0;orthogonalLoop=1;jettySize=auto;html=1;exitX=1;exitY=0.5;exitDx=0;exitDy=0;exitPerimeter=0;" edge="1" parent="dlGFLDc5pn9WShTYnlXR-50" source="dlGFLDc5pn9WShTYnlXR-77" target="dlGFLDc5pn9WShTYnlXR-79">
          <mxGeometry relative="1" as="geometry" />
        </mxCell>
        <mxCell id="dlGFLDc5pn9WShTYnlXR-77" value="Ввод личных данных" style="points=[[0.25,0,0],[0.5,0,0],[0.75,0,0],[1,0.25,0],[1,0.5,0],[1,0.75,0],[0.75,1,0],[0.5,1,0],[0.25,1,0],[0,0.75,0],[0,0.5,0],[0,0.25,0]];shape=mxgraph.bpmn.task2;whiteSpace=wrap;rectStyle=rounded;size=10;html=1;container=1;expand=0;collapsible=0;taskMarker=user;" vertex="1" parent="dlGFLDc5pn9WShTYnlXR-50">
          <mxGeometry x="595" y="20" width="80" height="80" as="geometry" />
        </mxCell>
        <mxCell id="dlGFLDc5pn9WShTYnlXR-79" value="" style="points=[[0.145,0.145,0],[0.5,0,0],[0.855,0.145,0],[1,0.5,0],[0.855,0.855,0],[0.5,1,0],[0.145,0.855,0],[0,0.5,0]];shape=mxgraph.bpmn.event;html=1;verticalLabelPosition=bottom;labelBackgroundColor=#ffffff;verticalAlign=top;align=center;perimeter=ellipsePerimeter;outlineConnect=0;aspect=fixed;outline=standard;symbol=message;" vertex="1" parent="dlGFLDc5pn9WShTYnlXR-50">
          <mxGeometry x="700" y="35" width="50" height="50" as="geometry" />
        </mxCell>
        <mxCell id="dlGFLDc5pn9WShTYnlXR-82" style="edgeStyle=orthogonalEdgeStyle;rounded=0;orthogonalLoop=1;jettySize=auto;html=1;exitX=0.5;exitY=0;exitDx=0;exitDy=0;exitPerimeter=0;" edge="1" parent="dlGFLDc5pn9WShTYnlXR-48" source="dlGFLDc5pn9WShTYnlXR-79" target="dlGFLDc5pn9WShTYnlXR-81">
          <mxGeometry relative="1" as="geometry" />
        </mxCell>
        <mxCell id="dlGFLDc5pn9WShTYnlXR-52" value="Система" style="swimlane;html=1;startSize=20;fontStyle=0;collapsible=0;horizontal=0;swimlaneLine=1;swimlaneFillColor=#ffffff;strokeWidth=2;whiteSpace=wrap;" vertex="1" parent="1">
          <mxGeometry x="40" y="800" width="990" height="100" as="geometry" />
        </mxCell>
        <mxCell id="dlGFLDc5pn9WShTYnlXR-64" value="БД клиентов" style="shape=datastore;html=1;labelPosition=center;verticalLabelPosition=bottom;align=center;verticalAlign=top;" vertex="1" parent="dlGFLDc5pn9WShTYnlXR-52">
          <mxGeometry x="415" y="17" width="80" height="60" as="geometry" />
        </mxCell>
        <mxCell id="dlGFLDc5pn9WShTYnlXR-69" value="&lt;span style=&quot;font-size: 11px;&quot;&gt;Пользователь существует&lt;/span&gt;" style="points=[[0.25,0,0],[0.5,0,0],[0.75,0,0],[1,0.25,0],[1,0.5,0],[1,0.75,0],[0.75,1,0],[0.5,1,0],[0.25,1,0],[0,0.75,0],[0,0.5,0],[0,0.25,0]];shape=mxgraph.bpmn.task2;whiteSpace=wrap;rectStyle=rounded;size=10;html=1;container=1;expand=0;collapsible=0;taskMarker=service;" vertex="1" parent="dlGFLDc5pn9WShTYnlXR-52">
          <mxGeometry x="520" y="7" width="80" height="80" as="geometry" />
        </mxCell>
        <mxCell id="dlGFLDc5pn9WShTYnlXR-75" style="edgeStyle=orthogonalEdgeStyle;rounded=0;orthogonalLoop=1;jettySize=auto;html=1;exitX=1;exitY=0.5;exitDx=0;exitDy=0;entryX=0;entryY=0.5;entryDx=0;entryDy=0;entryPerimeter=0;" edge="1" parent="dlGFLDc5pn9WShTYnlXR-52" source="dlGFLDc5pn9WShTYnlXR-64" target="dlGFLDc5pn9WShTYnlXR-69">
          <mxGeometry relative="1" as="geometry" />
        </mxCell>
        <mxCell id="dlGFLDc5pn9WShTYnlXR-60" value="" style="points=[[0.25,0.25,0],[0.5,0,0],[0.75,0.25,0],[1,0.5,0],[0.75,0.75,0],[0.5,1,0],[0.25,0.75,0],[0,0.5,0]];shape=mxgraph.bpmn.gateway2;html=1;verticalLabelPosition=bottom;labelBackgroundColor=#ffffff;verticalAlign=top;align=center;perimeter=rhombusPerimeter;outlineConnect=0;outline=none;symbol=none;gwType=exclusive;" vertex="1" parent="dlGFLDc5pn9WShTYnlXR-52">
          <mxGeometry x="630" y="22" width="50" height="50" as="geometry" />
        </mxCell>
        <mxCell id="dlGFLDc5pn9WShTYnlXR-76" style="edgeStyle=orthogonalEdgeStyle;rounded=0;orthogonalLoop=1;jettySize=auto;html=1;exitX=1;exitY=0.5;exitDx=0;exitDy=0;exitPerimeter=0;entryX=0;entryY=0.5;entryDx=0;entryDy=0;entryPerimeter=0;" edge="1" parent="dlGFLDc5pn9WShTYnlXR-52" source="dlGFLDc5pn9WShTYnlXR-69" target="dlGFLDc5pn9WShTYnlXR-60">
          <mxGeometry relative="1" as="geometry" />
        </mxCell>
        <mxCell id="dlGFLDc5pn9WShTYnlXR-71" style="edgeStyle=orthogonalEdgeStyle;rounded=0;orthogonalLoop=1;jettySize=auto;html=1;exitX=0.5;exitY=1;exitDx=0;exitDy=0;exitPerimeter=0;entryX=0.5;entryY=0;entryDx=0;entryDy=0;dashed=1;" edge="1" parent="1" source="dlGFLDc5pn9WShTYnlXR-70" target="dlGFLDc5pn9WShTYnlXR-64">
          <mxGeometry relative="1" as="geometry" />
        </mxCell>
        <mxCell id="dlGFLDc5pn9WShTYnlXR-78" value="Нет" style="edgeStyle=orthogonalEdgeStyle;rounded=0;orthogonalLoop=1;jettySize=auto;html=1;exitX=0.5;exitY=0;exitDx=0;exitDy=0;exitPerimeter=0;dashed=1;" edge="1" parent="1" source="dlGFLDc5pn9WShTYnlXR-60" target="dlGFLDc5pn9WShTYnlXR-77">
          <mxGeometry relative="1" as="geometry" />
        </mxCell>
        <mxCell id="dlGFLDc5pn9WShTYnlXR-86" style="edgeStyle=orthogonalEdgeStyle;rounded=0;orthogonalLoop=1;jettySize=auto;html=1;exitX=1;exitY=0.5;exitDx=0;exitDy=0;exitPerimeter=0;dashed=1;" edge="1" parent="1" source="dlGFLDc5pn9WShTYnlXR-60" target="dlGFLDc5pn9WShTYnlXR-79">
          <mxGeometry relative="1" as="geometry">
            <mxPoint x="980" y="740" as="targetPoint" />
          </mxGeometry>
        </mxCell>
        <mxCell id="dlGFLDc5pn9WShTYnlXR-87" value="Да" style="edgeLabel;html=1;align=center;verticalAlign=middle;resizable=0;points=[];" vertex="1" connectable="0" parent="dlGFLDc5pn9WShTYnlXR-86">
          <mxGeometry x="-0.7875" y="-4" relative="1" as="geometry">
            <mxPoint x="-5" y="-4" as="offset" />
          </mxGeometry>
        </mxCell>
        <mxCell id="dlGFLDc5pn9WShTYnlXR-92" value="Отзывы" style="swimlane;html=1;childLayout=stackLayout;resizeParent=1;resizeParentMax=0;horizontal=0;startSize=20;horizontalStack=0;whiteSpace=wrap;" vertex="1" parent="1">
          <mxGeometry x="40" y="950" width="990" height="140" as="geometry" />
        </mxCell>
        <mxCell id="dlGFLDc5pn9WShTYnlXR-93" value="Клиент" style="swimlane;html=1;startSize=20;horizontal=0;fillColor=default;" vertex="1" parent="dlGFLDc5pn9WShTYnlXR-92">
          <mxGeometry x="20" width="970" height="140" as="geometry" />
        </mxCell>
        <mxCell id="dlGFLDc5pn9WShTYnlXR-99" style="edgeStyle=orthogonalEdgeStyle;rounded=0;orthogonalLoop=1;jettySize=auto;html=1;exitX=1;exitY=0.5;exitDx=0;exitDy=0;exitPerimeter=0;" edge="1" parent="dlGFLDc5pn9WShTYnlXR-93" source="dlGFLDc5pn9WShTYnlXR-97" target="dlGFLDc5pn9WShTYnlXR-98">
          <mxGeometry relative="1" as="geometry" />
        </mxCell>
        <mxCell id="dlGFLDc5pn9WShTYnlXR-97" value="" style="points=[[0.145,0.145,0],[0.5,0,0],[0.855,0.145,0],[1,0.5,0],[0.855,0.855,0],[0.5,1,0],[0.145,0.855,0],[0,0.5,0]];shape=mxgraph.bpmn.event;html=1;verticalLabelPosition=bottom;labelBackgroundColor=#ffffff;verticalAlign=top;align=center;perimeter=ellipsePerimeter;outlineConnect=0;aspect=fixed;outline=standard;symbol=general;" vertex="1" parent="dlGFLDc5pn9WShTYnlXR-93">
          <mxGeometry x="40" y="45" width="50" height="50" as="geometry" />
        </mxCell>
        <mxCell id="dlGFLDc5pn9WShTYnlXR-101" style="edgeStyle=orthogonalEdgeStyle;rounded=0;orthogonalLoop=1;jettySize=auto;html=1;exitX=1;exitY=0.5;exitDx=0;exitDy=0;exitPerimeter=0;" edge="1" parent="dlGFLDc5pn9WShTYnlXR-93" source="dlGFLDc5pn9WShTYnlXR-98" target="dlGFLDc5pn9WShTYnlXR-100">
          <mxGeometry relative="1" as="geometry" />
        </mxCell>
        <mxCell id="dlGFLDc5pn9WShTYnlXR-98" value="Нажал кнопку оставить отзыв" style="points=[[0.25,0,0],[0.5,0,0],[0.75,0,0],[1,0.25,0],[1,0.5,0],[1,0.75,0],[0.75,1,0],[0.5,1,0],[0.25,1,0],[0,0.75,0],[0,0.5,0],[0,0.25,0]];shape=mxgraph.bpmn.task2;whiteSpace=wrap;rectStyle=rounded;size=10;html=1;container=1;expand=0;collapsible=0;taskMarker=user;" vertex="1" parent="dlGFLDc5pn9WShTYnlXR-93">
          <mxGeometry x="110" y="30" width="80" height="80" as="geometry" />
        </mxCell>
        <mxCell id="dlGFLDc5pn9WShTYnlXR-103" style="edgeStyle=orthogonalEdgeStyle;rounded=0;orthogonalLoop=1;jettySize=auto;html=1;exitX=1;exitY=0.5;exitDx=0;exitDy=0;exitPerimeter=0;" edge="1" parent="dlGFLDc5pn9WShTYnlXR-93" source="dlGFLDc5pn9WShTYnlXR-100" target="dlGFLDc5pn9WShTYnlXR-102">
          <mxGeometry relative="1" as="geometry" />
        </mxCell>
        <mxCell id="dlGFLDc5pn9WShTYnlXR-100" value="Выбрал консультанта из списка" style="points=[[0.25,0,0],[0.5,0,0],[0.75,0,0],[1,0.25,0],[1,0.5,0],[1,0.75,0],[0.75,1,0],[0.5,1,0],[0.25,1,0],[0,0.75,0],[0,0.5,0],[0,0.25,0]];shape=mxgraph.bpmn.task2;whiteSpace=wrap;rectStyle=rounded;size=10;html=1;container=1;expand=0;collapsible=0;taskMarker=user;" vertex="1" parent="dlGFLDc5pn9WShTYnlXR-93">
          <mxGeometry x="210" y="30" width="80" height="80" as="geometry" />
        </mxCell>
        <mxCell id="dlGFLDc5pn9WShTYnlXR-102" value="Поставил оценку от 1 до 5" style="points=[[0.25,0,0],[0.5,0,0],[0.75,0,0],[1,0.25,0],[1,0.5,0],[1,0.75,0],[0.75,1,0],[0.5,1,0],[0.25,1,0],[0,0.75,0],[0,0.5,0],[0,0.25,0]];shape=mxgraph.bpmn.task2;whiteSpace=wrap;rectStyle=rounded;size=10;html=1;container=1;expand=0;collapsible=0;taskMarker=user;" vertex="1" parent="dlGFLDc5pn9WShTYnlXR-93">
          <mxGeometry x="310" y="30" width="80" height="80" as="geometry" />
        </mxCell>
        <mxCell id="dlGFLDc5pn9WShTYnlXR-104" value="Ввел текст отзыва" style="points=[[0.25,0,0],[0.5,0,0],[0.75,0,0],[1,0.25,0],[1,0.5,0],[1,0.75,0],[0.75,1,0],[0.5,1,0],[0.25,1,0],[0,0.75,0],[0,0.5,0],[0,0.25,0]];shape=mxgraph.bpmn.task2;whiteSpace=wrap;rectStyle=rounded;size=10;html=1;container=1;expand=0;collapsible=0;taskMarker=user;" vertex="1" parent="dlGFLDc5pn9WShTYnlXR-93">
          <mxGeometry x="410" y="30" width="80" height="80" as="geometry" />
        </mxCell>
        <mxCell id="dlGFLDc5pn9WShTYnlXR-105" style="edgeStyle=orthogonalEdgeStyle;rounded=0;orthogonalLoop=1;jettySize=auto;html=1;exitX=1;exitY=0.5;exitDx=0;exitDy=0;exitPerimeter=0;entryX=0;entryY=0.5;entryDx=0;entryDy=0;entryPerimeter=0;" edge="1" parent="dlGFLDc5pn9WShTYnlXR-93" source="dlGFLDc5pn9WShTYnlXR-102" target="dlGFLDc5pn9WShTYnlXR-104">
          <mxGeometry relative="1" as="geometry" />
        </mxCell>
        <mxCell id="dlGFLDc5pn9WShTYnlXR-106" value="" style="points=[[0.145,0.145,0],[0.5,0,0],[0.855,0.145,0],[1,0.5,0],[0.855,0.855,0],[0.5,1,0],[0.145,0.855,0],[0,0.5,0]];shape=mxgraph.bpmn.event;html=1;verticalLabelPosition=bottom;labelBackgroundColor=#ffffff;verticalAlign=top;align=center;perimeter=ellipsePerimeter;outlineConnect=0;aspect=fixed;outline=standard;symbol=message;" vertex="1" parent="dlGFLDc5pn9WShTYnlXR-93">
          <mxGeometry x="510" y="45" width="50" height="50" as="geometry" />
        </mxCell>
        <mxCell id="dlGFLDc5pn9WShTYnlXR-107" style="edgeStyle=orthogonalEdgeStyle;rounded=0;orthogonalLoop=1;jettySize=auto;html=1;exitX=1;exitY=0.5;exitDx=0;exitDy=0;exitPerimeter=0;entryX=0;entryY=0.5;entryDx=0;entryDy=0;entryPerimeter=0;" edge="1" parent="dlGFLDc5pn9WShTYnlXR-93" source="dlGFLDc5pn9WShTYnlXR-104" target="dlGFLDc5pn9WShTYnlXR-106">
          <mxGeometry relative="1" as="geometry" />
        </mxCell>
        <mxCell id="dlGFLDc5pn9WShTYnlXR-114" value="" style="points=[[0.145,0.145,0],[0.5,0,0],[0.855,0.145,0],[1,0.5,0],[0.855,0.855,0],[0.5,1,0],[0.145,0.855,0],[0,0.5,0]];shape=mxgraph.bpmn.event;html=1;verticalLabelPosition=bottom;labelBackgroundColor=#ffffff;verticalAlign=top;align=center;perimeter=ellipsePerimeter;outlineConnect=0;aspect=fixed;outline=catching;symbol=message;" vertex="1" parent="dlGFLDc5pn9WShTYnlXR-93">
          <mxGeometry x="710" y="40" width="50" height="50" as="geometry" />
        </mxCell>
        <mxCell id="dlGFLDc5pn9WShTYnlXR-116" value="" style="points=[[0.145,0.145,0],[0.5,0,0],[0.855,0.145,0],[1,0.5,0],[0.855,0.855,0],[0.5,1,0],[0.145,0.855,0],[0,0.5,0]];shape=mxgraph.bpmn.event;html=1;verticalLabelPosition=bottom;labelBackgroundColor=#ffffff;verticalAlign=top;align=center;perimeter=ellipsePerimeter;outlineConnect=0;aspect=fixed;outline=end;symbol=terminate2;" vertex="1" parent="dlGFLDc5pn9WShTYnlXR-93">
          <mxGeometry x="790" y="40" width="50" height="50" as="geometry" />
        </mxCell>
        <mxCell id="dlGFLDc5pn9WShTYnlXR-117" style="edgeStyle=orthogonalEdgeStyle;rounded=0;orthogonalLoop=1;jettySize=auto;html=1;exitX=1;exitY=0.5;exitDx=0;exitDy=0;exitPerimeter=0;entryX=0;entryY=0.5;entryDx=0;entryDy=0;entryPerimeter=0;" edge="1" parent="dlGFLDc5pn9WShTYnlXR-93" source="dlGFLDc5pn9WShTYnlXR-114" target="dlGFLDc5pn9WShTYnlXR-116">
          <mxGeometry relative="1" as="geometry" />
        </mxCell>
        <mxCell id="dlGFLDc5pn9WShTYnlXR-96" value="Система" style="swimlane;html=1;startSize=20;fontStyle=0;collapsible=0;horizontal=0;swimlaneLine=1;swimlaneFillColor=#ffffff;strokeWidth=2;whiteSpace=wrap;" vertex="1" parent="1">
          <mxGeometry x="40" y="1130" width="990" height="110" as="geometry" />
        </mxCell>
        <mxCell id="dlGFLDc5pn9WShTYnlXR-108" value="БД отзывов" style="shape=datastore;html=1;labelPosition=center;verticalLabelPosition=bottom;align=center;verticalAlign=top;" vertex="1" parent="dlGFLDc5pn9WShTYnlXR-96">
          <mxGeometry x="515" y="20" width="80" height="60" as="geometry" />
        </mxCell>
        <mxCell id="dlGFLDc5pn9WShTYnlXR-113" style="edgeStyle=orthogonalEdgeStyle;rounded=0;orthogonalLoop=1;jettySize=auto;html=1;exitX=1;exitY=0.5;exitDx=0;exitDy=0;exitPerimeter=0;" edge="1" parent="dlGFLDc5pn9WShTYnlXR-96" source="dlGFLDc5pn9WShTYnlXR-110" target="dlGFLDc5pn9WShTYnlXR-112">
          <mxGeometry relative="1" as="geometry" />
        </mxCell>
        <mxCell id="dlGFLDc5pn9WShTYnlXR-110" value="&lt;span style=&quot;font-size: 11px;&quot;&gt;Вывод текста отзыва на сайте&lt;/span&gt;" style="points=[[0.25,0,0],[0.5,0,0],[0.75,0,0],[1,0.25,0],[1,0.5,0],[1,0.75,0],[0.75,1,0],[0.5,1,0],[0.25,1,0],[0,0.75,0],[0,0.5,0],[0,0.25,0]];shape=mxgraph.bpmn.task2;whiteSpace=wrap;rectStyle=rounded;size=10;html=1;container=1;expand=0;collapsible=0;taskMarker=service;" vertex="1" parent="dlGFLDc5pn9WShTYnlXR-96">
          <mxGeometry x="620" y="10" width="80" height="80" as="geometry" />
        </mxCell>
        <mxCell id="dlGFLDc5pn9WShTYnlXR-111" style="edgeStyle=orthogonalEdgeStyle;rounded=0;orthogonalLoop=1;jettySize=auto;html=1;exitX=1;exitY=0.5;exitDx=0;exitDy=0;entryX=0;entryY=0.5;entryDx=0;entryDy=0;entryPerimeter=0;" edge="1" parent="dlGFLDc5pn9WShTYnlXR-96" source="dlGFLDc5pn9WShTYnlXR-108" target="dlGFLDc5pn9WShTYnlXR-110">
          <mxGeometry relative="1" as="geometry" />
        </mxCell>
        <mxCell id="dlGFLDc5pn9WShTYnlXR-112" value="" style="points=[[0.145,0.145,0],[0.5,0,0],[0.855,0.145,0],[1,0.5,0],[0.855,0.855,0],[0.5,1,0],[0.145,0.855,0],[0,0.5,0]];shape=mxgraph.bpmn.event;html=1;verticalLabelPosition=bottom;labelBackgroundColor=#ffffff;verticalAlign=top;align=center;perimeter=ellipsePerimeter;outlineConnect=0;aspect=fixed;outline=standard;symbol=message;" vertex="1" parent="dlGFLDc5pn9WShTYnlXR-96">
          <mxGeometry x="730" y="25" width="50" height="50" as="geometry" />
        </mxCell>
        <mxCell id="dlGFLDc5pn9WShTYnlXR-109" style="edgeStyle=orthogonalEdgeStyle;rounded=0;orthogonalLoop=1;jettySize=auto;html=1;exitX=0.5;exitY=1;exitDx=0;exitDy=0;exitPerimeter=0;entryX=0.5;entryY=0;entryDx=0;entryDy=0;dashed=1;" edge="1" parent="1" source="dlGFLDc5pn9WShTYnlXR-106" target="dlGFLDc5pn9WShTYnlXR-108">
          <mxGeometry relative="1" as="geometry" />
        </mxCell>
        <mxCell id="dlGFLDc5pn9WShTYnlXR-115" value="Спасибо&amp;nbsp; за ваш отзыв" style="edgeStyle=orthogonalEdgeStyle;rounded=0;orthogonalLoop=1;jettySize=auto;html=1;exitX=0.5;exitY=0;exitDx=0;exitDy=0;exitPerimeter=0;dashed=1;" edge="1" parent="1" source="dlGFLDc5pn9WShTYnlXR-112" target="dlGFLDc5pn9WShTYnlXR-114">
          <mxGeometry x="-0.2174" y="-5" relative="1" as="geometry">
            <mxPoint as="offset" />
          </mxGeometry>
        </mxCell>
      </root>
    </mxGraphModel>
  </diagram>
</mxfile>
